<svg xmlns="http://www.w3.org/2000/svg" xmlns:xlink="http://www.w3.org/1999/xlink" xmlns:sketch="http://www.bohemiancoding.com/sketch/ns" viewBox="0 0 100 125" version="1.1" x="0px" y="0px"><title>layers</title><desc>Created with Sketch.</desc><g stroke="none" stroke-width="1" fill="none" fill-rule="evenodd" sketch:type="MSPage"><path d="M16.9173603,20.0505351 L30.3032105,30.2170036 C30.5714923,30.4206302 30.8873365,30.5194709 31.2009512,30.5194709 C31.6498216,30.5194709 32.0927467,30.3165874 32.3855529,29.9323722 C32.8819857,29.2783888 32.7541617,28.3457194 32.1009215,27.8492866 L18.7150713,17.6828181 C18.0618312,17.1871284 17.1291617,17.3149524 16.6327289,17.9674495 C16.1362961,18.6214328 16.2633769,19.5541023 16.9173603,20.0505351 L16.9173603,20.0505351 L16.9173603,20.0505351 Z M68.2595125,29.8558264 C68.5456302,30.2868609 69.0175386,30.520214 69.4991082,30.520214 C69.7815101,30.520214 70.0668847,30.4392093 70.3203032,30.2719976 L86.0530618,19.8186683 C86.7367717,19.3645957 86.9225624,18.4423306 86.4684899,17.7586207 C86.0144174,17.0749108 85.0921522,16.8898633 84.4076992,17.3424495 L68.6749405,27.7957788 C67.9912307,28.2498514 67.80544,29.1721165 68.2595125,29.8558264 L68.2595125,29.8558264 L68.2595125,29.8558264 Z M39.3177765,24.5005945 C39.5942331,24.9754756 40.0921522,25.2392985 40.6041914,25.2392985 C40.85761,25.2392985 41.1154875,25.1746433 41.350327,25.0379013 C42.0600476,24.6247027 42.3000892,23.7143282 41.8876338,23.0053508 L33.056629,7.83665279 C32.6434304,7.12693222 31.733799,6.88614744 31.0240785,7.29934602 C30.3143579,7.71254459 30.0743163,8.62291914 30.4875149,9.33189655 L39.3177765,24.5005945 L39.3177765,24.5005945 Z M59.2085315,25.2549049 C59.4448573,25.3931332 59.7042212,25.4592747 59.959126,25.4592747 C60.4689358,25.4592747 60.9661118,25.1969382 61.2425684,24.7257729 L70.2734839,9.33709869 C70.688912,8.62886445 70.451843,7.71774673 69.7436088,7.30306183 C69.0353746,6.88763377 68.1242568,7.12470273 67.7095719,7.83145065 L58.6786564,23.2201249 C58.2632283,23.9291023 58.5002973,24.8394768 59.2085315,25.2549049 L59.2085315,25.2549049 L59.2085315,25.2549049 Z M94.0249703,49.8164388 L87.4189952,45.9282105 C86.710761,45.5120392 85.8003864,45.748365 85.3842152,46.455113 C84.968044,47.162604 85.2036266,48.0737218 85.9111177,48.489893 L90.3403686,51.0969084 L49.8781213,74.9063615 L9.41661712,51.0969084 L13.845868,48.4906361 C14.5533591,48.0744649 14.7889417,47.1633472 14.3727705,46.4558561 C13.9573424,45.7498514 13.0462247,45.5135256 12.3379905,45.9289536 L5.73275862,49.8164388 C5.27868609,50.0832342 5,50.5700059 5,51.0969084 C5,51.6238109 5.27868609,52.1105826 5.73275862,52.3781213 L49.1245541,77.9117122 C49.3571641,78.0491974 49.6180143,78.1168252 49.8781213,78.1168252 C50.1389715,78.1168252 50.3998216,78.0491974 50.6324316,77.9117122 L94.0242271,52.3781213 C94.4782996,52.1105826 94.7569857,51.6238109 94.7569857,51.0969084 C94.7569857,50.5700059 94.4782996,50.0832342 94.0249703,49.8164388 L94.0249703,49.8164388 L94.0249703,49.8164388 Z M5.73275862,35.4942033 L49.1245541,61.0277943 C49.3571641,61.1652794 49.6180143,61.2336504 49.8781213,61.2336504 C50.1389715,61.2336504 50.3998216,61.1652794 50.6324316,61.0277943 L94.0242271,35.4942033 C94.4782996,35.2274078 94.7569857,34.739893 94.7569857,34.2129905 C94.7569857,33.686088 94.4782996,33.1993163 94.0242271,32.9325208 L87.4189952,29.0450357 C86.7115042,28.6296076 85.8003864,28.8651902 85.3842152,29.5719382 C84.968044,30.2794293 85.2036266,31.190547 85.9111177,31.6074614 L90.3403686,34.2129905 L49.8781213,58.0224435 L9.41661712,34.2129905 L13.845868,31.6074614 C14.5533591,31.190547 14.7889417,30.2794293 14.3727705,29.5719382 C13.9573424,28.8651902 13.0462247,28.6303508 12.3379905,29.0450357 L5.73275862,32.9325208 C5.27868609,33.1993163 5,33.686088 5,34.2129905 C5,34.739893 5.27868609,35.2274078 5.73275862,35.4942033 L5.73275862,35.4942033 L5.73275862,35.4942033 Z M94.0242271,66.6988704 L87.4189952,62.8121284 C86.7115042,62.395214 85.8003864,62.632283 85.3842152,63.3390309 C84.968044,64.046522 85.2036266,64.9568966 85.9111177,65.3738109 L90.3403686,67.9800832 L49.8781213,91.7895363 L9.41661712,67.9800832 L13.845868,65.3738109 C14.5533591,64.9568966 14.7889417,64.046522 14.3727705,63.3390309 C13.9573424,62.6330262 13.0462247,62.3959572 12.3379905,62.8121284 L5.73275862,66.6988704 C5.27868609,66.966409 5,67.4531807 5,67.9800832 C5,68.5069857 5.27868609,68.9937574 5.73275862,69.2612961 L49.1245541,94.794887 C49.3571641,94.9323722 49.6180143,95 49.8781213,95 C50.1389715,95 50.3998216,94.9323722 50.6324316,94.794887 L94.0242271,69.2612961 C94.4782996,68.9937574 94.7569857,68.5069857 94.7569857,67.9800832 C94.7569857,67.4531807 94.4782996,66.966409 94.0242271,66.6988704 L94.0242271,66.6988704 L94.0242271,66.6988704 Z M50,23.773038 C50.8204518,23.773038 51.4863258,23.1071641 51.4863258,22.2867122 L51.4863258,6.4863258 C51.4863258,5.6651308 50.8204518,5 50,5 C49.178805,5 48.5136742,5.6651308 48.5136742,6.4863258 L48.5136742,22.2867122 C48.5136742,23.1071641 49.178805,23.773038 50,23.773038 L50,23.773038 L50,23.773038 Z" fill="#27253f" sketch:type="MSShapeGroup"/></g></svg>
