<?xml version="1.0" encoding="UTF-8"?>
<svg width="92px" height="82px" viewBox="0 0 92 82" version="1.1" xmlns="http://www.w3.org/2000/svg" xmlns:xlink="http://www.w3.org/1999/xlink">
    <!-- Generator: Sketch 52.2 (67145) - http://www.bohemiancoding.com/sketch -->
    <title>noun_atom_349063</title>
    <desc>Created with Sketch.</desc>
    <g id="Page-2" stroke="none" stroke-width="1" fill="none" fill-rule="evenodd">
        <g id="noun_atom_349063" fill="#fff" fill-rule="nonzero">
            <path d="M46,29.149 C39.466,29.149 34.15,34.465 34.15,40.999 C34.15,47.533 39.466,52.849 46,52.849 C52.534,52.849 57.851,47.533 57.851,40.999 C57.851,34.465 52.534,29.149 46,29.149 Z M46,49.85 C41.12,49.85 37.15,45.88 37.15,41 C37.15,36.12 41.12,32.15 46,32.15 C50.88,32.15 54.851,36.12 54.851,41 C54.851,45.88 50.88,49.85 46,49.85 Z" id="Shape"></path>
            <path d="M91.82,41 C91.82,34.687 84.047,29.226 72,25.993 C72.15,25.44 72.269,24.904 72.401,24.361 C75.837,24.091 78.55,21.215 78.55,17.712 C78.55,14.715 76.565,12.174 73.84,11.333 C73.487,6.452 71.806,2.989 68.909,1.318 C64.487,-1.237 57.963,0.718 50.539,6.824 C49.027,8.068 47.51,9.464 45.997,10.979 C37.175,2.162 28.559,-1.839 23.088,1.317 C18.663,3.872 17.094,10.5 18.671,19.98 C18.992,21.911 19.442,23.924 19.999,25.992 C7.953,29.225 0.18,34.686 0.18,41 C0.18,43.915 1.842,46.744 4.962,49.235 C4.762,49.906 4.651,50.615 4.651,51.35 C4.651,55.459 7.994,58.802 12.103,58.802 C14.669,58.802 16.937,57.497 18.278,55.517 C18.847,55.684 19.419,55.849 20.007,56.005 C16.779,68.059 17.622,77.525 23.09,80.683 C24.343,81.407 25.761,81.754 27.31,81.754 C32.519,81.754 39.199,77.816 46.001,71.018 C52.803,77.817 59.482,81.754 64.691,81.754 C66.24,81.754 67.658,81.406 68.912,80.683 C71.276,79.317 72.855,76.719 73.534,73.151 C76.689,72.502 79.069,69.703 79.069,66.358 C79.069,62.772 76.333,59.814 72.84,59.46 C72.599,58.331 72.319,57.179 72.003,56.007 C84.048,52.773 91.82,47.312 91.82,41 Z M88.82,41 C88.82,45.514 82.24,50.222 71.17,53.162 C69.944,49.228 68.341,45.125 66.405,40.98 C68.328,36.854 69.94,32.757 71.164,28.837 C82.238,31.776 88.82,36.485 88.82,41 Z M46.001,66.728 C43.898,64.437 41.766,61.834 39.646,58.935 C41.745,59.048 43.865,59.121 46,59.121 C48.158,59.121 50.273,59.06 52.345,58.951 C50.229,61.844 48.1,64.44 46.001,66.728 Z M46,56.12 C43.105,56.12 40.24,56 37.431,55.789 C35.901,53.53 34.386,51.123 32.906,48.56 C31.452,46.042 30.113,43.51 28.898,40.995 C30.092,38.533 31.422,36.011 32.906,33.44 C34.36,30.922 35.883,28.496 37.454,26.186 C40.183,25.989 43.032,25.88 46,25.88 C48.971,25.88 51.822,25.989 54.553,26.187 C56.089,28.453 57.61,30.868 59.095,33.44 C60.543,35.947 61.874,38.474 63.088,40.989 C61.869,43.519 60.541,46.055 59.095,48.561 C57.61,51.133 56.09,53.548 54.554,55.814 C51.822,56.011 48.971,56.12 46,56.12 Z M33.599,55.432 C30.148,55.049 26.834,54.511 23.734,53.823 C24.663,50.874 25.842,47.747 27.283,44.483 C28.23,46.344 29.238,48.207 30.308,50.061 C31.378,51.915 32.479,53.705 33.599,55.432 Z M27.291,37.505 C25.888,34.312 24.696,31.167 23.744,28.131 C26.767,27.46 30.073,26.916 33.627,26.531 C32.489,28.281 31.379,30.086 30.309,31.94 C29.232,33.804 28.23,35.662 27.291,37.505 Z M46.017,15.291 C48.111,17.574 50.234,20.164 52.344,23.05 C50.274,22.941 48.158,22.88 46,22.88 C43.848,22.88 41.739,22.941 39.674,23.049 C41.737,20.237 43.864,17.633 46.017,15.291 Z M58.374,26.531 C61.924,26.915 65.226,27.458 68.246,28.129 C67.293,31.158 66.096,34.301 64.701,37.482 C63.758,35.63 62.755,33.779 61.692,31.94 C60.613,30.07 59.504,28.27 58.374,26.531 Z M61.692,50.061 C62.758,48.214 63.752,46.348 64.701,44.48 C66.106,47.68 67.281,50.828 68.237,53.874 C65.22,54.543 61.923,55.085 58.378,55.47 C59.507,53.73 60.614,51.928 61.692,50.061 Z M75.551,17.711 C75.551,19.737 73.903,21.386 71.876,21.386 C69.849,21.386 68.2,19.738 68.2,17.711 C68.2,15.684 69.849,14.036 71.876,14.036 C73.903,14.036 75.551,15.685 75.551,17.711 Z M52.446,9.141 C58.739,3.964 64.193,2.057 67.41,3.916 C69.742,5.261 70.575,8.344 70.828,11.127 C67.644,11.632 65.2,14.388 65.2,17.711 C65.2,20.525 66.953,22.933 69.423,23.913 C69.311,24.368 69.211,24.814 69.086,25.276 C65.145,24.384 60.818,23.717 56.209,23.318 C53.558,19.526 50.818,16.112 48.074,13.144 C49.531,11.682 50.992,10.337 52.446,9.141 Z M21.633,19.488 C20.296,11.448 21.373,5.772 24.59,3.916 C28.497,1.659 35.862,5.001 43.943,13.116 C41.156,16.135 38.414,19.574 35.796,23.318 C31.185,23.718 26.858,24.384 22.915,25.277 C22.376,23.284 21.941,21.346 21.633,19.488 Z M12.104,55.802 C9.649,55.802 7.652,53.805 7.652,51.35 C7.652,48.896 9.649,46.899 12.104,46.899 C14.559,46.899 16.555,48.896 16.555,51.35 C16.555,53.805 14.558,55.802 12.104,55.802 Z M19.422,52.722 C19.505,52.277 19.554,51.82 19.554,51.35 C19.554,47.242 16.211,43.899 12.103,43.899 C9.821,43.899 7.778,44.932 6.41,46.553 C4.761,45.147 3.18,43.229 3.18,41 C3.18,36.488 9.757,31.78 20.823,28.84 C22.045,32.764 23.652,36.859 25.585,40.999 C23.628,45.189 22.043,49.266 20.844,53.124 C20.36,52.995 19.893,52.857 19.422,52.722 Z M24.59,78.085 C20.68,75.827 19.894,67.769 22.887,56.704 C26.893,57.603 31.241,58.263 35.773,58.661 C38.436,62.473 41.191,65.9 43.948,68.88 C35.868,76.998 28.5,80.343 24.59,78.085 Z M76.068,66.357 C76.068,68.527 74.303,70.292 72.134,70.292 C69.964,70.292 68.199,68.527 68.199,66.357 C68.199,64.188 69.964,62.423 72.134,62.423 C74.304,62.424 76.068,64.188 76.068,66.357 Z M69.827,59.827 C67.137,60.781 65.2,63.344 65.2,66.357 C65.2,69.613 67.459,72.344 70.489,73.086 C69.948,75.526 68.92,77.211 67.41,78.084 C63.499,80.341 56.133,76.996 48.054,68.879 C50.806,65.904 53.555,62.483 56.214,58.68 C60.815,58.281 65.133,57.616 69.068,56.726 C69.354,57.778 69.605,58.812 69.827,59.827 Z" id="Shape"></path>
        </g>
    </g>
</svg>
